<svg height="100" viewBox="0 0 50 50" width="100" xmlns="http://www.w3.org/2000/svg"><path d="m17.791 46.836c.711-.306 1.209-1.013 1.209-1.836v-5.4c0-.197.016-.402.041-.61-.014.004-.027.007-.041.01 0 0-3 0-3.6 0-1.5 0-2.8-.6-3.4-1.8-.7-1.3-1-3.5-2.8-4.7-.3-.2-.1-.5.5-.5.6.1 1.9.9 2.7 2 .9 1.1 1.8 2 3.4 2 2.487 0 3.82-.125 4.622-.555.934-1.389 2.227-2.445 3.578-2.445v-.025c-5.668-.182-9.289-2.066-10.975-4.975-3.665.042-6.856.405-8.677.707-.058-.327-.108-.656-.151-.987 1.797-.296 4.843-.647 8.345-.714-.112-.276-.209-.559-.291-.849-3.511-.178-6.541-.039-8.187.097-.02-.332-.047-.663-.051-.999 1.649-.135 4.597-.27 8.018-.111-.079-.5-.13-1.011-.13-1.543 0-1.7.6-3.5 1.7-5-.5-1.7-1.2-5.3.2-6.6 2.7 0 4.6 1.3 5.5 2.1 1.699-.701 3.599-1.101 5.699-1.101s4 .4 5.6 1.1c.9-.8 2.8-2.1 5.5-2.1 1.5 1.4.7 5 .2 6.6 1.1 1.5 1.7 3.2 1.6 5 0 .484-.045.951-.11 1.409 3.499-.172 6.527-.034 8.204.102-.002.337-.033.666-.051.999-1.671-.138-4.775-.28-8.359-.089-.089.336-.197.663-.325.98 3.546.046 6.665.389 8.548.689-.043.332-.093.661-.151.987-1.912-.306-5.171-.664-8.879-.682-1.665 2.878-5.22 4.755-10.777 4.974v.031c2.6 0 5 3.9 5 6.6v5.4c0 .823.498 1.53 1.209 1.836 9.161-3.032 15.791-11.672 15.791-21.836 0-12.682-10.317-23-23-23s-23 10.318-23 23c0 10.164 6.63 18.804 15.791 21.836z"/></svg>