<svg width="218" height="182" viewBox="0 0 218 182" fill="none" xmlns="http://www.w3.org/2000/svg">
<path d="M165.615 108.892C165.615 128.445 162.364 145.939 157.276 158.376C154.727 164.606 151.806 169.35 148.793 172.466C145.792 175.568 142.991 176.783 140.5 176.783C138.009 176.783 135.208 175.568 132.207 172.466C129.194 169.35 126.273 164.606 123.724 158.376C118.636 145.939 115.385 128.445 115.385 108.892C115.385 89.3381 118.636 71.845 123.724 59.4073C126.273 53.1773 129.194 48.4334 132.207 45.3178C135.208 42.2156 138.009 41.0005 140.5 41.0005C142.991 41.0005 145.792 42.2156 148.793 45.3178C151.806 48.4334 154.727 53.1773 157.276 59.4073C162.364 71.845 165.615 89.3381 165.615 108.892Z" stroke="#14B8A6" stroke-width="9"/>
<path d="M165.615 108.892C165.615 128.445 162.364 145.939 157.276 158.376C154.727 164.606 151.806 169.35 148.793 172.466C145.792 175.568 142.991 176.783 140.5 176.783C138.009 176.783 135.208 175.568 132.207 172.466C129.194 169.35 126.273 164.606 123.724 158.376C118.636 145.939 115.385 128.445 115.385 108.892C115.385 89.3381 118.636 71.845 123.724 59.4073C126.273 53.1773 129.194 48.4334 132.207 45.3178C135.208 42.2156 138.009 41.0005 140.5 41.0005C142.991 41.0005 145.792 42.2156 148.793 45.3178C151.806 48.4334 154.727 53.1773 157.276 59.4073C162.364 71.845 165.615 89.3381 165.615 108.892Z" stroke="#14B8A6" stroke-width="9"/>
<path d="M153.238 130.537C136.386 140.454 119.661 146.525 106.361 148.448C99.6989 149.411 94.1289 149.299 89.9155 148.283C85.72 147.27 83.252 145.472 81.9887 143.325C80.7254 141.178 80.3518 138.148 81.5036 133.988C82.6604 129.811 85.2674 124.888 89.344 119.532C97.4827 108.838 110.91 97.1644 127.762 87.2472C144.614 77.3299 161.339 71.2593 174.639 69.3363C181.301 68.3731 186.871 68.4845 191.085 69.5013C195.28 70.5139 197.748 72.312 199.011 74.4587C200.275 76.6054 200.648 79.636 199.496 83.7954C198.34 87.9725 195.733 92.8961 191.656 98.2522C183.517 108.946 170.09 120.619 153.238 130.537Z" stroke="#14B8A6" stroke-width="9"/>
<path d="M127.943 130.642C111.009 120.865 97.4846 109.303 89.2573 98.6777C85.1363 93.3556 82.4885 88.454 81.297 84.2866C80.1106 80.1369 80.459 77.1033 81.7044 74.9461C82.9499 72.789 85.4028 70.9705 89.5897 69.9231C93.7946 68.8712 99.3635 68.7135 106.033 69.6213C119.349 71.4337 136.123 77.3651 153.057 87.1419C169.991 96.9187 183.515 108.48 191.743 119.106C195.864 124.428 198.512 129.33 199.703 133.497C200.889 137.647 200.541 140.68 199.296 142.837C198.05 144.995 195.597 146.813 191.41 147.861C187.205 148.912 181.637 149.07 174.967 148.162C161.651 146.35 144.877 140.419 127.943 130.642Z" stroke="#14B8A6" stroke-width="9"/>
<path d="M139.184 92.5412C139.998 92.0709 141.002 92.0709 141.816 92.5412L154.572 99.9057C155.386 100.376 155.888 101.245 155.888 102.185V116.915C155.888 117.855 155.386 118.724 154.572 119.194L141.816 126.559C141.002 127.029 139.998 127.029 139.184 126.559L126.428 119.194C125.613 118.724 125.112 117.855 125.112 116.915V102.185C125.112 101.245 125.613 100.376 126.428 99.9057L139.184 92.5412Z" fill="#14B8A6" fill-opacity="0.5"/>
<path d="M0 10.5005H160V18.5005L155 25.5005H0V10.5005Z" fill="#145CA3"/>
<path d="M0 25.5005H155L64 155.5H0V25.5005Z" fill="#1A76D2"/>
<rect x="12" y="35.5005" width="30" height="10" fill="#99C8F6"/>
<rect x="12" y="55.5005" width="30" height="10" fill="#99C8F6"/>
<rect x="12" y="75.5005" width="30" height="10" fill="#99C8F6"/>
<rect x="12" y="95.5005" width="30" height="10" fill="#99C8F6"/>
<rect x="12" y="115.5" width="30" height="10" fill="#99C8F6"/>
<rect x="12" y="135.5" width="30" height="10" fill="#99C8F6"/>
<rect x="62" y="35.5005" width="30" height="10" fill="#99C8F6"/>
<rect x="62" y="55.5005" width="30" height="10" fill="#99C8F6"/>
<rect x="62" y="75.5005" width="30" height="10" fill="#99C8F6"/>
<rect x="62" y="95.5005" width="30" height="10" fill="#99C8F6"/>
<path fill-rule="evenodd" clip-rule="evenodd" d="M92 115.5L85 125.5H62V115.5H92Z" fill="#99C8F6"/>
<path fill-rule="evenodd" clip-rule="evenodd" d="M78 135.5L71 145.5H62V135.5H78Z" fill="#99C8F6"/>
<path fill-rule="evenodd" clip-rule="evenodd" d="M142 44.0719L141 45.5005H112V35.5005H142V44.0719Z" fill="#99C8F6"/>
<path fill-rule="evenodd" clip-rule="evenodd" d="M134 55.5005L127 65.5005H112V55.5005H134Z" fill="#99C8F6"/>
<path fill-rule="evenodd" clip-rule="evenodd" d="M120 75.5005L113 85.5005H112V75.5005H120Z" fill="#99C8F6"/>
<path fill-rule="evenodd" clip-rule="evenodd" d="M173.66 0.998405C176.146 2.74326 176.747 6.17339 175.003 8.65981L55.0025 179.66C53.2577 182.146 49.8275 182.747 47.3411 181.003C44.8547 179.258 44.2535 175.828 45.9984 173.341L165.998 2.34113C167.743 -0.145295 171.173 -0.746452 173.66 0.998405Z" fill="black"/>
<path fill-rule="evenodd" clip-rule="evenodd" d="M173.66 0.998405C176.146 2.74326 176.747 6.17339 175.003 8.65981L55.0025 179.66C53.2577 182.146 49.8275 182.747 47.3411 181.003C44.8547 179.258 44.2535 175.828 45.9984 173.341L165.998 2.34113C167.743 -0.145295 171.173 -0.746452 173.66 0.998405Z" fill="#14B8A6" fill-opacity="0.5"/>
<path fill-rule="evenodd" clip-rule="evenodd" d="M173.66 0.998405C176.146 2.74326 176.747 6.17339 175.003 8.65981L55.0025 179.66C53.2577 182.146 49.8275 182.747 47.3411 181.003C44.8547 179.258 44.2535 175.828 45.9984 173.341L165.998 2.34113C167.743 -0.145295 171.173 -0.746452 173.66 0.998405Z" fill="#CCCCCC"/>
</svg>
