<svg fill="none" height="202" viewBox="0 0 239 202" width="239" xmlns="http://www.w3.org/2000/svg" xmlns:xlink="http://www.w3.org/1999/xlink"><mask id="a" height="150" maskUnits="userSpaceOnUse" width="171" x="13" y="17"><path d="m184 17-171 2.9653v146.2887h64.2486z" fill="#c4c4c4"/></mask><g stroke="#eb525a" stroke-width="9"><path d="m186.615 114.391c0 19.554-3.251 37.047-8.339 49.485-2.549 6.23-5.47 10.974-8.483 14.089-3.001 3.102-5.802 4.318-8.293 4.318s-5.292-1.216-8.293-4.318c-3.013-3.115-5.934-7.859-8.483-14.089-5.088-12.438-8.339-29.931-8.339-49.485 0-19.5534 3.251-37.0465 8.339-49.4842 2.549-6.2299 5.47-10.9739 8.483-14.0894 3.001-3.1023 5.802-4.3174 8.293-4.3174s5.292 1.2151 8.293 4.3174c3.013 3.1155 5.934 7.8595 8.483 14.0894 5.088 12.4377 8.339 29.9308 8.339 49.4842z"/><path d="m186.615 114.391c0 19.554-3.251 37.047-8.339 49.485-2.549 6.23-5.47 10.974-8.483 14.089-3.001 3.102-5.802 4.318-8.293 4.318s-5.292-1.216-8.293-4.318c-3.013-3.115-5.934-7.859-8.483-14.089-5.088-12.438-8.339-29.931-8.339-49.485 0-19.5534 3.251-37.0465 8.339-49.4842 2.549-6.2299 5.47-10.9739 8.483-14.0894 3.001-3.1023 5.802-4.3174 8.293-4.3174s5.292 1.2151 8.293 4.3174c3.013 3.1155 5.934 7.8595 8.483 14.0894 5.088 12.4377 8.339 29.9308 8.339 49.4842z"/><path d="m174.238 136.036c-16.852 9.917-33.577 15.988-46.877 17.911-6.662.963-12.232.852-16.445-.165-4.196-1.013-6.664-2.811-7.927-4.957-1.264-2.147-1.637-5.178-.485-9.337 1.156-4.177 3.763-9.101 7.84-14.457 8.139-10.693 21.566-22.367 38.418-32.2844 16.852-9.9173 33.577-15.9879 46.877-17.9109 6.662-.9633 12.232-.8519 16.446.165 4.195 1.0126 6.663 2.8106 7.926 4.9574 1.264 2.1467 1.637 5.1773.485 9.3367-1.156 4.1771-3.763 9.1006-7.84 14.4572-8.139 10.693-21.566 22.367-38.418 32.284z"/><path d="m148.943 136.141c-16.934-9.777-30.458-21.338-38.686-31.964-4.121-5.3218-6.769-10.2235-7.96-14.3909-1.186-4.1497-.838-7.1833.407-9.3404 1.246-2.1572 3.699-3.9757 7.886-5.0231 4.205-1.0519 9.773-1.2096 16.443-.3018 13.316 1.8124 30.09 7.7438 47.024 17.5206 16.934 9.7766 30.458 21.3386 38.686 31.9636 4.121 5.322 6.769 10.224 7.96 14.392 1.186 4.149.838 7.183-.407 9.34-1.246 2.157-3.699 3.976-7.886 5.023-4.205 1.052-9.773 1.21-16.443.302-13.316-1.813-30.09-7.744-47.024-17.521z"/></g><path d="m160.184 98.0406c.814-.4703 1.818-.4703 2.632 0l12.756 7.3644c.815.47 1.316 1.339 1.316 2.28v14.729c0 .94-.501 1.809-1.316 2.28l-12.756 7.364c-.814.471-1.818.471-2.632 0l-12.756-7.364c-.814-.471-1.316-1.34-1.316-2.28v-14.729c0-.941.502-1.81 1.316-2.28z" fill="#f5a8ac"/><g mask="url(#a)"><path d="m20.4769 42.2688h42.3757v20.6301h-42.3757z" fill="#99c8f7" stroke="#1a76d2" stroke-width="11"/><path d="m18.9306 24.9075h45.4682v7.90751h-45.4682z" fill="#1a76d2" stroke="#145ca3" stroke-width="7.90751"/><path d="m73.8526 42.2688h42.3757v20.6301h-42.3757z" fill="#99c8f7" stroke="#1a76d2" stroke-width="11"/><path d="m72.3064 24.9075h45.4682v7.90751h-45.4682z" fill="#1a76d2" stroke="#145ca3" stroke-width="7.90751"/><path d="m127.228 42.2688h42.3757v20.6301h-42.3757z" fill="#99c8f7" stroke="#1a76d2" stroke-width="11"/><path d="m125.682 24.9075h45.4682v7.90751h-45.4682z" fill="#1a76d2" stroke="#145ca3" stroke-width="7.90751"/><g fill="#99c8f7" stroke="#1a76d2" stroke-width="11"><path d="m20.4769 73.8988h42.3757v20.6301h-42.3757z"/><path d="m73.8526 73.8988h42.3757v20.6301h-42.3757z"/><path d="m127.228 73.8988h42.3757v20.6301h-42.3757z"/><path d="m20.4769 105.529h42.3757v20.6301h-42.3757z"/><path d="m20.4769 137.159h42.3757v20.6301h-42.3757z"/><path d="m73.8526 105.529h42.3757v20.6301h-42.3757z"/><path d="m73.8526 137.159h42.3757v20.6301h-42.3757z"/><path d="m127.228 105.529h42.3757v20.6301h-42.3757z"/><path d="m127.228 137.159h42.3757v20.6301h-42.3757z"/></g></g><path d="m66 185 120-171" stroke="#000" stroke-linecap="round" stroke-width="19"/><path d="m66 185 120-171" stroke="#eb000c" stroke-linecap="round" stroke-opacity=".5" stroke-width="19"/><path d="m66 185 120-171" stroke="#0069d2" stroke-linecap="round" stroke-opacity=".5" stroke-width="19"/></svg>