<svg width="205" height="183" viewBox="0 0 205 183" fill="none" xmlns="http://www.w3.org/2000/svg">
<path d="M165.615 110.391C165.615 129.945 162.364 147.438 157.276 159.876C154.727 166.106 151.806 170.85 148.793 173.965C145.792 177.067 142.991 178.283 140.5 178.283C138.009 178.283 135.208 177.067 132.207 173.965C129.194 170.85 126.273 166.106 123.724 159.876C118.636 147.438 115.385 129.945 115.385 110.391C115.385 90.8376 118.636 73.3445 123.724 60.9068C126.273 54.6769 129.194 49.9329 132.207 46.8174C135.208 43.7151 138.009 42.5 140.5 42.5C142.991 42.5 145.792 43.7151 148.793 46.8174C151.806 49.9329 154.727 54.6769 157.276 60.9068C162.364 73.3445 165.615 90.8376 165.615 110.391Z" stroke="#14B8A6" stroke-width="9"/>
<path d="M165.615 110.391C165.615 129.945 162.364 147.438 157.276 159.876C154.727 166.106 151.806 170.85 148.793 173.965C145.792 177.067 142.991 178.283 140.5 178.283C138.009 178.283 135.208 177.067 132.207 173.965C129.194 170.85 126.273 166.106 123.724 159.876C118.636 147.438 115.385 129.945 115.385 110.391C115.385 90.8376 118.636 73.3445 123.724 60.9068C126.273 54.6769 129.194 49.9329 132.207 46.8174C135.208 43.7151 138.009 42.5 140.5 42.5C142.991 42.5 145.792 43.7151 148.793 46.8174C151.806 49.9329 154.727 54.6769 157.276 60.9068C162.364 73.3445 165.615 90.8376 165.615 110.391Z" stroke="#14B8A6" stroke-width="9"/>
<path d="M153.238 132.036C136.386 141.953 119.661 148.024 106.361 149.947C99.699 150.91 94.1289 150.799 89.9155 149.782C85.7201 148.769 83.2521 146.971 81.9887 144.825C80.7254 142.678 80.3518 139.647 81.5037 135.488C82.6604 131.311 85.2675 126.387 89.344 121.031C97.4828 110.338 110.91 98.6638 127.762 88.7466C144.614 78.8293 161.339 72.7587 174.639 70.8357C181.301 69.8724 186.871 69.9838 191.085 71.0007C195.28 72.0133 197.748 73.8113 199.011 75.9581C200.275 78.1048 200.648 81.1354 199.496 85.2948C198.34 89.4719 195.733 94.3954 191.656 99.7516C183.517 110.445 170.09 122.119 153.238 132.036Z" stroke="#14B8A6" stroke-width="9"/>
<path d="M127.943 132.141C111.009 122.364 97.4846 110.803 89.2573 100.177C85.1363 94.8552 82.4885 89.9535 81.297 85.7861C80.1106 81.6364 80.459 78.6028 81.7044 76.4457C82.9499 74.2885 85.4028 72.47 89.5897 71.4226C93.7946 70.3707 99.3635 70.213 106.033 71.1208C119.349 72.9332 136.123 78.8646 153.057 88.6414C169.991 98.4182 183.515 109.98 191.743 120.605C195.864 125.927 198.512 130.829 199.703 134.997C200.889 139.146 200.541 142.18 199.296 144.337C198.05 146.494 195.597 148.313 191.41 149.36C187.205 150.412 181.637 150.57 174.967 149.662C161.651 147.849 144.877 141.918 127.943 132.141Z" stroke="#14B8A6" stroke-width="9"/>
<path d="M139.184 94.0406C139.998 93.5703 141.002 93.5703 141.816 94.0406L154.572 101.405C155.387 101.875 155.888 102.744 155.888 103.685V118.414C155.888 119.354 155.387 120.223 154.572 120.694L141.816 128.058C141.002 128.529 139.998 128.529 139.184 128.058L126.428 120.694C125.614 120.223 125.112 119.354 125.112 118.414V103.685C125.112 102.744 125.614 101.875 126.428 101.405L139.184 94.0406Z" fill="#14B8A6" fill-opacity="0.5"/>
<path d="M0 12H160V20L155 27H0V12Z" fill="#145CA3"/>
<path d="M0 27H155L64 157H0V27Z" fill="#1A76D2"/>
<rect x="12" y="37" width="30" height="10" fill="#99C8F6"/>
<rect x="12" y="57" width="30" height="10" fill="#99C8F6"/>
<rect x="12" y="77" width="30" height="10" fill="#99C8F6"/>
<rect x="12" y="97" width="30" height="10" fill="#99C8F6"/>
<rect x="12" y="117" width="30" height="10" fill="#99C8F6"/>
<rect x="12" y="137" width="30" height="10" fill="#99C8F6"/>
<rect x="62" y="37" width="30" height="10" fill="#99C8F6"/>
<rect x="62" y="57" width="30" height="10" fill="#99C8F6"/>
<rect x="62" y="77" width="30" height="10" fill="#99C8F6"/>
<rect x="62" y="97" width="30" height="10" fill="#99C8F6"/>
<path fill-rule="evenodd" clip-rule="evenodd" d="M92 117L85 127H62V117H92Z" fill="#99C8F6"/>
<path fill-rule="evenodd" clip-rule="evenodd" d="M78 137L71 147H62V137H78Z" fill="#99C8F6"/>
<path fill-rule="evenodd" clip-rule="evenodd" d="M142 45.5714L141 47H112V37H142V45.5714Z" fill="#99C8F6"/>
<path fill-rule="evenodd" clip-rule="evenodd" d="M134 57L127 67H112V57H134Z" fill="#99C8F6"/>
<path fill-rule="evenodd" clip-rule="evenodd" d="M120 77L113 87H112V77H120Z" fill="#99C8F6"/>
<path fill-rule="evenodd" clip-rule="evenodd" d="M171.159 1.49792C173.646 3.24277 174.247 6.6729 172.502 9.15932L52.502 180.159C50.7572 182.646 47.3271 183.247 44.8406 181.502C42.3542 179.757 41.7531 176.327 43.4979 173.841L163.498 2.84064C165.243 0.354217 168.673 -0.24694 171.159 1.49792Z" fill="black"/>
<path fill-rule="evenodd" clip-rule="evenodd" d="M171.159 1.49792C173.646 3.24277 174.247 6.6729 172.502 9.15932L52.502 180.159C50.7572 182.646 47.3271 183.247 44.8406 181.502C42.3542 179.757 41.7531 176.327 43.4979 173.841L163.498 2.84064C165.243 0.354217 168.673 -0.24694 171.159 1.49792Z" fill="#EB000C" fill-opacity="0.5"/>
<path fill-rule="evenodd" clip-rule="evenodd" d="M171.159 1.49792C173.646 3.24277 174.247 6.6729 172.502 9.15932L52.502 180.159C50.7572 182.646 47.3271 183.247 44.8406 181.502C42.3542 179.757 41.7531 176.327 43.4979 173.841L163.498 2.84064C165.243 0.354217 168.673 -0.24694 171.159 1.49792Z" fill="#0069D2" fill-opacity="0.5"/>
</svg>
