<svg height="690pt" preserveAspectRatio="xMidYMid meet" viewBox="0 0 708 690" width="708pt" xmlns="http://www.w3.org/2000/svg"><path d="m780 6475c-7-8-23-15-36-15-12 0-29-7-38-15-8-8-21-15-30-15-8 0-19-6-23-13s-25-26-45-41c-21-16-38-34-38-41s-7-15-15-19c-8-3-15-12-15-20 0-7-7-16-15-20-8-3-15-17-15-31s-4-25-9-25-12-7-15-16-6-1238-6-2732c0-2396 2-2717 15-2732 8-9 15-26 15-39 0-12 7-24 15-27 8-4 15-13 15-21 0-20 128-143 150-143 10 0 23-7 30-15s24-15 39-15c14-1 37-7 51-15 38-22 5317-22 5346 0 10 8 33 15 50 15s37 7 44 15 21 15 32 15c10 0 21 7 24 15 4 8 11 15 16 15 13 0 108 95 108 108 0 5 7 12 15 16 8 3 15 15 15 26s7 31 15 44c13 20 15 336 15 2742 0 2407-2 2720-15 2730-8 6-15 23-15 38s-7 29-15 32c-8 4-15 11-15 17s-7 17-15 26c-66 72-111 111-128 111-8 0-20 7-27 15s-22 15-34 15c-11 0-30 7-40 15-17 13-360 15-2707 15-2376 0-2688-2-2699-15zm1648-1133c2-12 17-37 33-54 16-18 29-37 29-43s14-25 30-43c17-18 30-40 30-48s7-17 15-20c8-4 15-13 15-20 0-8 7-17 15-20 8-4 15-15 15-25 0-11 7-22 15-25 8-4 15-13 15-20 0-8 7-17 15-20 8-4 15-15 15-25 0-11 7-22 15-25 8-4 15-13 15-20 0-8 7-17 15-20 8-4 15-15 15-25 0-11 7-22 15-25 8-4 15-13 15-20 0-8 7-17 15-20 8-4 15-15 15-25 0-11 7-22 15-25 8-4 15-13 15-20 0-8 7-17 15-20 8-4 15-15 15-25 0-11 7-22 15-25 8-4 15-13 15-20 0-8 7-17 15-20 8-4 15-15 15-25 0-11 7-22 15-25 8-4 15-13 15-20 0-8 7-17 15-20 8-4 15-15 15-25 0-11 7-22 15-25 8-4 15-13 15-20 0-8 7-17 15-20 8-4 15-15 15-25 0-11 7-22 15-25 8-4 15-13 15-20 0-8 7-17 15-20 8-4 15-15 15-25 0-11 7-22 15-25 8-4 15-13 15-20 0-8 7-17 15-20 8-4 15-15 15-25 0-11 7-22 15-25 8-4 15-13 15-20 0-8 7-17 15-20 8-4 15-15 15-25 0-11 7-22 15-25 8-4 15-13 15-20 0-8 7-17 15-20 8-4 15-15 15-25 0-11 7-22 15-25 8-4 15-13 15-20 0-8 7-17 15-20 8-4 15-15 15-25 0-11 7-22 15-25 8-4 15-13 15-20 0-8 7-17 15-20 8-4 15-15 15-25 0-11 7-22 15-25 8-4 15-12 15-20 0-7 6-17 14-21s15-17 18-28c4-23 38-34 38-12 0 8 7 17 15 21 8 3 15 14 15 25 0 10 7 21 15 25 8 3 15 12 15 20 0 7 7 16 15 20 8 3 15 14 15 25 0 10 7 21 15 25 8 3 15 12 15 20 0 7 7 16 15 20 8 3 15 14 15 25 0 10 7 21 15 25 8 3 15 12 15 20 0 7 7 16 15 20 8 3 15 14 15 25 0 10 7 21 15 25 8 3 15 12 15 20 0 7 7 16 15 20 8 3 15 14 15 25 0 10 7 21 15 25 8 3 15 12 15 21 0 8 4 15 10 15 5 0 12 11 16 24 3 14 12 27 20 30s14 12 14 20c0 7 7 16 15 20 8 3 15 14 15 25 0 10 7 21 15 25 8 3 15 12 15 20 0 7 7 16 15 20 8 3 15 14 15 25 0 10 7 21 15 25 8 3 15 12 15 20 0 7 7 16 15 20 8 3 15 14 15 25 0 10 7 21 15 25 8 3 15 12 15 20 0 7 7 16 15 20 8 3 15 14 15 25 0 10 7 21 15 25 8 3 15 12 15 20 0 7 7 16 15 20 8 3 15 14 15 25 0 10 7 21 15 25 8 3 15 12 15 20 0 7 7 16 15 20 8 3 15 14 15 25 0 10 7 21 15 25 8 3 15 12 15 21 0 8 4 15 10 15 5 0 12 11 16 25 3 14 10 25 15 25s12 8 16 18c3 9 19 33 35 53 15 20 28 41 28 47 0 5 7 12 15 16 8 3 15 14 15 25 0 10 7 21 15 25 8 3 15 12 15 21 0 8 4 15 10 15 5 0 12 11 16 24 3 14 12 27 20 30s14 12 14 21c0 8 4 15 10 15 5 0 12 11 16 25 3 14 10 25 15 25s13 8 16 17c21 54 16 53 315 53 273 0 278 0 278-20 0-11-7-23-15-26-8-4-15-12-15-19s-7-15-15-19c-8-3-15-14-15-25 0-10-7-21-15-25-8-3-15-12-15-20 0-7-7-16-15-20-8-3-15-14-15-25 0-10-7-21-15-25-8-3-15-12-15-21 0-8-4-15-10-15-5 0-12-11-16-25-3-14-10-25-15-25s-13-8-16-17c-4-10-12-23-17-29-6-6-18-22-26-34-8-13-23-30-32-39-10-8-18-21-18-27 0-7-7-14-15-18-8-3-15-14-15-25 0-10-7-21-15-25-8-3-15-12-15-20 0-7-7-16-15-20-8-3-15-14-15-25 0-10-7-21-15-25-8-3-15-12-15-20 0-7-7-16-15-20-8-3-15-12-15-20s-13-30-30-48c-16-18-30-36-30-41 0-9-17-30-42-55-10-9-18-22-18-28 0-7-7-14-15-18-8-3-15-14-15-25 0-10-7-21-15-25-8-3-15-12-15-20 0-7-7-16-15-20-8-3-15-14-15-25 0-10-7-21-15-25-8-3-15-12-15-21 0-8-4-15-10-15-5 0-12-11-16-25-3-14-10-25-15-25s-13-8-16-17c-4-10-12-23-17-29-6-6-18-22-26-34-8-13-23-30-32-39-10-8-18-21-18-27 0-7-7-14-15-18-8-3-15-14-15-25 0-10-7-21-15-25-8-3-15-12-15-20 0-7-7-16-15-20-8-3-15-12-15-20s-13-30-30-48c-16-18-30-40-30-49s-7-19-15-23c-8-3-15-12-15-21 0-8-5-15-10-15-6 0-14-8-17-17-8-21-21-37-45-61-10-9-18-22-18-28 0-7-7-14-15-18-8-3-15-14-15-25 0-10-7-21-15-25-8-3-15-12-15-20 0-7-7-16-15-20-8-3-15-14-15-25 0-10-7-21-15-25-8-3-15-12-15-21 0-8-4-15-10-15-5 0-12-11-16-24-3-14-13-27-21-30-11-5-13-14-9-34 5-21 4-24-4-12-10 12-12 13-17 1-3-7-14-21-24-29-23-20-24-41-4-48 8-4 15-13 15-20 0-8 6-17 14-20s17-16 20-30c4-13 11-24 16-24 6 0 10-5 10-11 0-9 46-76 80-116 5-7 10-17 10-23s7-13 15-16c8-4 15-15 15-25 0-11 7-22 15-25 8-4 15-13 15-20 0-8 7-17 15-20 8-4 15-10 15-16 0-8 48-77 80-115 5-7 10-17 10-22s14-25 30-43 30-38 30-46c0-7 7-15 15-18 8-4 15-13 15-20 0-8 7-17 15-20 8-4 15-15 15-25 0-11 7-22 15-25 8-4 15-13 15-20 0-8 7-17 15-20 8-4 15-11 15-16 0-6 14-27 30-48 17-21 30-43 30-49 0-7 7-14 15-17 8-4 15-11 15-16 0-6 14-27 30-48 17-21 30-43 30-49 0-7 7-14 15-17 8-4 15-13 15-20 0-8 7-17 15-20 8-4 15-15 15-25 0-11 7-22 15-25 8-4 15-13 15-20 0-8 7-17 15-20 8-4 15-10 15-16 0-8 48-77 80-115 5-7 10-15 10-19 0-3 14-23 30-44 17-21 30-43 30-49 0-7 7-14 15-17 8-4 15-13 15-20 0-8 7-17 15-20 8-4 15-15 15-25 0-11 7-22 15-25 8-4 15-13 15-20 0-8 7-17 15-20 8-4 15-10 15-16 0-8 48-77 80-115 5-7 10-15 10-19 0-3 13-23 28-43 16-20 32-44 35-53 4-10 11-18 17-18 5 0 10-7 10-15 0-9 7-18 15-21 8-4 15-15 15-25 0-11 7-22 15-25 8-4 15-13 15-20 0-8 7-17 15-20 8-4 15-11 15-16 0-6 14-28 31-49 54-69 55-69-256-69-240 0-275 2-275 15 0 9-7 18-15 21-8 4-15 15-15 25 0 11-7 22-15 25-8 4-15 13-15 20 0 8-7 17-15 20-8 4-15 15-15 25 0 11-7 22-15 25-8 4-15 11-15 16 0 6-13 27-28 47-16 20-32 44-35 53-4 10-11 18-17 18-5 0-10 5-10 11 0 5-16 31-35 57-61 83-71 97-85 130-5 12-14 22-19 22s-12 8-15 18c-9 24-32 63-43 71-10 8-30 39-43 69-5 12-14 22-20 22-5 0-10 5-10 11s-13 28-30 49c-16 21-30 43-30 48 0 6-6 15-12 19-15 9-33 37-48 71-5 12-14 22-20 22-5 0-10 7-10 15 0 9-7 18-15 21-8 4-15 15-15 25 0 11-7 22-15 25-8 4-15 13-15 20 0 8-7 17-15 20-8 4-15 15-15 25 0 11-7 22-15 25-8 4-15 13-15 20 0 8-6 17-14 20s-17 16-20 30c-4 13-11 24-16 24-6 0-10 7-10 15 0 9-7 18-15 21-8 4-15 15-15 25 0 11-7 22-15 25-8 4-15 12-15 20 0 7-6 17-12 21-15 9-33 37-48 71-5 12-14 22-20 22-5 0-10 7-10 15 0 9-7 18-15 21-8 4-15 10-15 15 0 12-42 73-52 77-5 2-8 8-8 14s-13 27-30 48c-16 21-30 46-30 55 0 17-1 17-20 0-11-10-20-24-20-30 0-7-7-15-15-19-8-3-15-14-15-25 0-10-7-21-15-25-8-3-15-12-15-21 0-8-4-15-10-15-5 0-12-11-16-24-3-14-12-27-20-30s-14-12-14-21c0-8-5-15-10-15-6 0-15-10-20-22-13-30-33-61-43-69-11-8-34-47-43-71-3-10-10-18-15-18-8 0-33-40-45-72-3-10-10-18-15-18s-14-10-19-22c-15-34-33-62-47-71-7-4-13-13-13-19 0-5-13-27-30-48-16-21-30-41-30-44 0-4-5-12-10-19-32-38-80-107-80-115 0-6-7-12-15-16-8-3-15-12-15-20 0-7-7-16-15-20-8-3-15-14-15-25 0-10-7-21-15-25-8-3-15-12-15-20 0-7-7-16-15-20-8-3-15-14-15-25 0-10-7-21-15-25-8-3-15-12-15-20 0-7-7-16-15-20-8-3-15-14-15-25 0-10-7-21-15-25-8-3-15-12-15-20 0-7-7-16-15-20-8-3-15-14-15-25 0-10-7-21-15-25-8-3-15-12-15-20 0-7-7-16-15-20-8-3-15-14-15-25 0-10-7-21-15-25-8-3-15-12-15-20 0-7-7-16-15-20-8-3-15-14-15-25 0-10-7-21-15-25-8-3-15-12-15-20 0-7-7-16-15-20-8-3-15-14-15-25 0-10-7-21-15-25-8-3-15-12-15-21 0-8-5-15-10-15-6 0-15-10-20-23-13-29-32-59-47-72-6-5-13-19-15-30-3-19-12-20-281-23-246-2-278-1-284 14-6 16 29 72 54 87 7 4 13 14 13 21 0 8 7 16 15 20 8 3 15 14 15 25 0 10 7 21 15 25 8 3 15 12 15 20 0 7 7 16 15 20 8 3 15 14 15 25 0 10 7 21 15 25 8 3 15 12 15 20 0 7 7 16 15 20 8 3 15 14 15 25 0 10 7 21 15 25 8 3 15 12 15 20 0 7 7 16 15 20 8 3 15 10 15 16 0 12 15 32 43 58 9 9 17 22 17 28 0 7 7 14 15 18 8 3 15 14 15 25 0 10 7 21 15 25 8 3 15 12 15 20 0 7 7 16 15 20 8 3 15 14 15 25 0 10 7 21 15 25 8 3 15 12 15 20 0 7 7 16 15 20 8 3 15 14 15 25 0 10 7 21 15 25 8 3 15 12 15 20 0 7 7 16 15 20 8 3 15 10 15 16 0 11 12 28 45 61 17 17 18 22 6 40-9 15-10 24-2 32s11 5 11-12c0-27 23-23 29 5 2 10 9 23 17 27s14 14 14 21c0 8 7 16 15 20 8 3 15 14 15 25 0 10 7 21 15 25 8 3 15 12 15 21 0 8 5 15 10 15 6 0 15 10 20 23 15 33 33 61 48 70 6 4 12 14 12 21 0 8 7 16 15 20 8 3 15 12 15 20 0 7 7 16 15 20 8 3 15 12 15 20 0 7 7 16 15 20 8 3 15 14 15 25 0 10 7 21 15 25 8 3 15 12 15 20 0 7 7 16 15 20 8 3 15 14 15 25 0 10 7 21 15 25 8 3 15 12 15 20 0 7 7 16 15 20 8 3 15 14 15 25 0 10 7 21 15 25 8 3 15 10 15 16s6 17 13 24c6 8 19 24 27 36 8 13 23 30 33 39 9 8 17 21 17 27 0 7 7 14 15 18 8 3 15 14 15 25 0 10 7 21 15 25 8 3 15 12 15 20 0 7 7 16 15 20 8 3 15 14 15 25 0 10 7 21 15 25 8 3 15 12 15 20 0 7 7 16 15 20 8 3 15 14 15 25 0 10 7 22 16 25 10 4 14 14 11 25-3 14-1 18 9 14 8-3 17 3 21 13 3 11 17 33 29 49l23 31-24 29c-13 17-24 36-25 43 0 7-7 15-15 18-8 4-15 13-15 20 0 8-7 17-15 20-8 4-15 15-15 25 0 11-7 22-15 25-8 4-15 13-15 20 0 8-7 17-15 20-8 4-15 10-15 16 0 8-48 77-80 115-5 7-10 15-10 19 0 3-13 23-30 44-16 21-30 43-30 49 0 7-7 14-15 17-8 4-15 13-15 20 0 8-7 17-15 20-8 4-15 15-15 25 0 11-7 22-15 25-8 4-15 13-15 20 0 8-7 17-15 20-8 4-15 10-15 16 0 8-48 77-80 115-5 7-10 15-10 19 0 3-13 23-28 43-16 20-32 44-35 54-4 9-11 17-17 17-5 0-10 7-10 15 0 9-7 18-15 21-8 4-15 15-15 25 0 11-7 22-15 25-8 4-15 13-15 20 0 8-7 17-15 20-8 4-15 10-15 16 0 8-48 77-80 115-5 7-10 15-10 19 0 3-13 23-30 44-16 21-30 43-30 49 0 7-7 14-15 17-8 4-15 13-15 20 0 8-7 17-15 20-8 4-15 15-15 25 0 11-7 22-15 25-8 4-15 13-15 20 0 8-7 17-15 20-8 4-15 11-15 16 0 6-13 27-30 48-16 21-30 43-30 49 0 7-7 14-15 17-8 4-15 11-15 16 0 6-13 27-28 47-16 20-32 44-35 54-4 9-11 17-17 17-5 0-10 7-10 15 0 9-7 18-15 21-8 4-15 15-15 25 0 11-7 22-15 25-8 4-15 10-15 15 0 17-43 69-57 69-8 0-12 4-8 10 3 5-11 32-30 61-20 28-34 57-31 65 5 12 50 14 283 12l278-3zm-438-243c0-18-2-19-15-9-15 12-12 30 6 30 5 0 9-10 9-21zm1983-519c-3-11-9-17-14-14-14 8-10 34 5 34 9 0 12-7 9-20zm-483-743c0-6-9-2-20 8s-20 23-20 28c0 6 9 2 20-8s20-23 20-28zm-17-913c-10-15-19-22-21-15s4 19 14 26c26 20 27 19 7-11z" fill="#1a76d2" transform="matrix(.1 0 0 -.1 0 690)"/></svg>